{
  "accessors": [
    {
      "bufferView": 2,
      "componentType": 5126,
      "count": 1156,
      "max": [
        240.2856903076172,
        179.74562072753906,
        684.781494140625
      ],
      "min": [
        -230.0655975341797,
        -351.9911193847656,
        3.1073973178863525
      ],
      "type": "VEC3"
    },
    {
      "bufferView": 2,
      "byteOffset": 13872,
      "componentType": 5126,
      "count": 1156,
      "max": [
        0.965925931930542,
        1.0,
        1.0
      ],
      "min": [
        -0.8670991659164429,
        -1.0,
        -1.0
      ],
      "type": "VEC3"
    },
    {
      "bufferView": 1,
      "componentType": 5126,
      "count": 1156,
      "max": [
        19.16614532470703,
        26.651506423950195
      ],
      "min": [
        -19.1109561920166,
        -16.430635452270508
      ],
      "type": "VEC2"
    },
    {
      "bufferView": 0,
      "componentType": 5125,
      "count": 1764,
      "type": "SCALAR"
    },
    {
      "bufferView": 2,
      "byteOffset": 27744,
      "componentType": 5126,
      "count": 368,
      "max": [
        243.87379455566406,
        179.74562072753906,
        686.2210083007813
      ],
      "min": [
        -233.58349609375,
        -273.22467041015625,
        5.7752912695219205e-12
      ],
      "type": "VEC3"
    },
    {
      "bufferView": 2,
      "byteOffset": 32160,
      "componentType": 5126,
      "count": 368,
      "max": [
        0.8660258650779724,
        1.0,
        1.0
      ],
      "min": [
        -0.8660258650779724,
        -1.0,
        -1.0
      ],
      "type": "VEC3"
    },
    {
      "bufferView": 1,
      "byteOffset": 9248,
      "componentType": 5126,
      "count": 368,
      "max": [
        1.3187283277511597,
        20.440675735473633
      ],
      "min": [
        -1.3187283277511597,
        -0.1603160798549652
      ],
      "type": "VEC2"
    },
    {
      "bufferView": 0,
      "byteOffset": 7056,
      "componentType": 5125,
      "count": 624,
      "type": "SCALAR"
    },
    {
      "bufferView": 2,
      "byteOffset": 36576,
      "componentType": 5126,
      "count": 1904,
      "max": [
        250.2436065673828,
        199.52761840820313,
        792.1456298828125
      ],
      "min": [
        -236.8325958251953,
        -342.27239990234375,
        380.28326416015625
      ],
      "type": "VEC3"
    },
    {
      "bufferView": 2,
      "byteOffset": 59424,
      "componentType": 5126,
      "count": 1904,
      "max": [
        0.9996136426925659,
        0.9998967051506042,
        0.9999327659606934
      ],
      "min": [
        -0.9996136426925659,
        -0.9996204972267151,
        -0.9984754323959351
      ],
      "type": "VEC3"
    },
    {
      "bufferView": 1,
      "byteOffset": 12192,
      "componentType": 5126,
      "count": 1904,
      "max": [
        0.9353599548339844,
        1.006686806678772
      ],
      "min": [
        -1.0542808771133423,
        -1.0076346397399902
      ],
      "type": "VEC2"
    },
    {
      "bufferView": 0,
      "byteOffset": 9552,
      "componentType": 5125,
      "count": 2856,
      "type": "SCALAR"
    }
  ],
  "asset": {
    "extras": {
      "author": "ap3design (https://sketchfab.com/ap3design)",
      "license": "CC-BY-4.0 (http://creativecommons.org/licenses/by/4.0/)",
      "source": "https://sketchfab.com/3d-models/office-chair-6bd337ed874f410eb005f46df80b2902",
      "title": "Office chair (Офисный стул)"
    },
    "generator": "Sketchfab-12.68.0",
    "version": "2.0"
  },
  "bufferViews": [
    {
      "buffer": 0,
      "byteLength": 20976,
      "name": "floatBufferViews",
      "target": 34963
    },
    {
      "buffer": 0,
      "byteLength": 27424,
      "byteOffset": 20976,
      "byteStride": 8,
      "name": "floatBufferViews",
      "target": 34962
    },
    {
      "buffer": 0,
      "byteLength": 82272,
      "byteOffset": 48400,
      "byteStride": 12,
      "name": "floatBufferViews",
      "target": 34962
    }
  ],
  "buffers": [
    {
      "byteLength": 130672,
      "uri": "scene.bin"
    }
  ],
  "extensionsRequired": [
    "KHR_materials_pbrSpecularGlossiness"
  ],
  "extensionsUsed": [
    "KHR_materials_pbrSpecularGlossiness"
  ],
  "images": [
    {
      "uri": "textures/oregon_1_diffuse.jpeg"
    }
  ],
  "materials": [
    {
      "doubleSided": true,
      "extensions": {
        "KHR_materials_pbrSpecularGlossiness": {
          "diffuseFactor": [
            0.15,
            0.15,
            0.15,
            1.0
          ],
          "glossinessFactor": 0.66,
          "specularFactor": [
            0.35,
            0.35,
            0.35
          ]
        }
      },
      "name": "chrom"
    },
    {
      "doubleSided": true,
      "extensions": {
        "KHR_materials_pbrSpecularGlossiness": {
          "diffuseFactor": [
            0.0,
            0.0,
            0.0,
            1.0
          ],
          "glossinessFactor": 0.8,
          "specularFactor": [
            0.0,
            0.0,
            0.0
          ]
        }
      },
      "name": "plastik"
    },
    {
      "doubleSided": true,
      "extensions": {
        "KHR_materials_pbrSpecularGlossiness": {
          "diffuseFactor": [
            0.59,
            0.59,
            0.59,
            1.0
          ],
          "diffuseTexture": {
            "index": 0
          },
          "glossinessFactor": 0.0,
          "specularFactor": [
            0.25,
            0.25,
            0.25
          ],
          "specularGlossinessTexture": {
            "index": 0
          }
        }
      },
      "name": "oregon_1"
    }
  ],
  "meshes": [
    {
      "name": "Object_0",
      "primitives": [
        {
          "attributes": {
            "NORMAL": 1,
            "POSITION": 0,
            "TEXCOORD_0": 2
          },
          "indices": 3,
          "material": 0,
          "mode": 4
        }
      ]
    },
    {
      "name": "Object_1",
      "primitives": [
        {
          "attributes": {
            "NORMAL": 5,
            "POSITION": 4,
            "TEXCOORD_0": 6
          },
          "indices": 7,
          "material": 1,
          "mode": 4
        }
      ]
    },
    {
      "name": "Object_2",
      "primitives": [
        {
          "attributes": {
            "NORMAL": 9,
            "POSITION": 8,
            "TEXCOORD_0": 10
          },
          "indices": 11,
          "material": 2,
          "mode": 4
        }
      ]
    }
  ],
  "nodes": [
    {
      "children": [
        1
      ],
      "matrix": [
        1.0,
        0.0,
        0.0,
        0.0,
        0.0,
        2.220446049250313e-16,
        -1.0,
        0.0,
        0.0,
        1.0,
        2.220446049250313e-16,
        0.0,
        0.0,
        0.0,
        0.0,
        1.0
      ],
      "name": "Sketchfab_model"
    },
    {
      "children": [
        2
      ],
      "name": "d6b8990e3a7d4a5d9ea78ea6e033233b.3ds"
    },
    {
      "children": [
        3
      ],
      "name": "Model"
    },
    {
      "children": [
        4,
        5,
        6
      ],
      "name": "Component_"
    },
    {
      "mesh": 0,
      "name": "Object_4"
    },
    {
      "mesh": 1,
      "name": "Object_5"
    },
    {
      "mesh": 2,
      "name": "Object_6"
    }
  ],
  "samplers": [
    {
      "magFilter": 9729,
      "minFilter": 9987,
      "wrapS": 10497,
      "wrapT": 10497
    }
  ],
  "scene": 0,
  "scenes": [
    {
      "name": "Sketchfab_Scene",
      "nodes": [
        0
      ]
    }
  ],
  "textures": [
    {
      "sampler": 0,
      "source": 0
    }
  ]
}
